<svg id="load-icon"
     fill="currentColor"
     preserveAspectRatio="none"
     xmlns="http://www.w3.org/2000/svg"
     viewBox="0 0 64 64">
    <path d="M5,33a2.11,2.11,0,0,0,2.72-.3L8,32.46v23.3A2.24,2.24,0,0,0,10.24,58h3.71A2.05,2.05,0,0,0,16,55.94V42.7A4.71,4.71,0,0,1,20.71,38h2.59A4.71,4.71,0,0,1,28,42.7V55.94A2.05,2.05,0,0,0,30.05,58H53.76A2.24,2.24,0,0,0,56,55.76V32.46l.39.39A2,2,0,1,0,59.22,30L37.46,8.26a7.73,7.73,0,0,0-10.92,0L4.78,30A2,2,0,0,0,5,33Zm38,5a.06.06,0,0,1,.06-.06H46a2,2,0,0,1,2,2v2.93a.06.06,0,0,1-.06.06H43.06a.06.06,0,0,1-.06-.06Zm0,7a.06.06,0,0,1,.06-.06h4.88a.06.06,0,0,1,.06.06V48a2,2,0,0,1-2,2H43.06a.06.06,0,0,1-.06-.06Zm-7-5a2,2,0,0,1,2-2h2.93a.06.06,0,0,1,.06.06v4.88a.06.06,0,0,1-.06.06H36.06a.06.06,0,0,1-.06-.06Zm0,5a.06.06,0,0,1,.06-.06h4.88a.06.06,0,0,1,.06.06v4.88a.06.06,0,0,1-.06.06H38a2,2,0,0,1-2-2Z" />
</svg>